<?xml version="1.0" standalone="no"?>
<!DOCTYPE svg PUBLIC "-//W3C//DTD SVG 20010904//EN"
 "http://www.w3.org/TR/2001/REC-SVG-20010904/DTD/svg10.dtd">
<svg version="1.0" xmlns="http://www.w3.org/2000/svg"
 width="2020.000000pt" height="313.000000pt" viewBox="0 0 2020.000000 313.000000"
 preserveAspectRatio="xMidYMid meet">

<g transform="translate(0.000000,313.000000) scale(0.100000,-0.100000)"
fill="#000000" stroke="none">
<path d="M2605 2873 c-171 -36 -333 -162 -410 -319 -46 -92 -74 -222 -56 -260
11 -24 15 -26 59 -20 79 12 140 36 216 87 134 89 219 227 246 397 17 106 7
129 -55 115z"/>
<path d="M9205 2640 c-292 -53 -455 -265 -455 -595 l0 -95 -103 0 c-140 0
-137 3 -137 -172 0 -171 -3 -168 138 -168 l102 0 0 -643 c0 -611 1 -645 18
-660 16 -15 45 -17 199 -17 175 0 180 1 201 23 l22 23 0 637 0 637 138 0 c185
0 182 -3 182 177 0 170 8 163 -178 163 l-142 0 0 93 c0 106 19 161 68 196 41
29 121 43 207 36 110 -9 112 -6 117 185 l3 155 -50 13 c-64 16 -265 24 -330
12z"/>
<path d="M9812 2597 l-22 -23 0 -1120 0 -1121 23 -21 c22 -21 32 -22 198 -22
171 0 176 1 197 23 l22 23 0 1120 0 1121 -23 21 c-22 21 -32 22 -198 22 -171
0 -176 -1 -197 -23z"/>
<path d="M5965 2521 c-128 -58 -164 -223 -72 -328 44 -50 98 -73 175 -73 138
0 222 79 222 210 0 93 -44 162 -122 195 -51 21 -153 19 -203 -4z"/>
<path d="M6635 2521 c-147 -67 -165 -276 -32 -368 33 -23 53 -28 113 -31 85
-5 133 9 179 50 72 62 86 194 31 278 -53 81 -194 115 -291 71z"/>
<path d="M3712 2477 l-22 -23 0 -1060 0 -1061 23 -21 c23 -22 27 -22 384 -22
278 0 381 4 449 15 400 69 674 318 780 710 25 92 27 119 32 333 3 192 1 251
-13 330 -68 380 -292 653 -630 769 -137 47 -210 53 -610 53 l-372 0 -21 -23z
m807 -372 c187 -44 317 -187 368 -404 15 -62 18 -119 17 -311 0 -209 -3 -244
-22 -313 -53 -194 -155 -314 -317 -377 -53 -21 -81 -24 -242 -28 l-183 -4 0
726 0 726 158 0 c105 0 178 -5 221 -15z"/>
<path d="M14322 2478 l-22 -24 0 -1060 0 -1061 24 -22 24 -22 488 4 c466 3
493 5 574 26 255 66 415 215 476 441 24 91 25 275 0 355 -40 132 -124 245
-228 304 l-49 29 35 21 c55 35 126 120 162 196 45 95 60 192 45 307 -34 265
-178 419 -460 496 -96 26 -97 26 -571 30 l-475 3 -23 -23z m960 -390 c70 -32
104 -80 119 -165 22 -125 -24 -229 -123 -277 -70 -34 -159 -46 -355 -46 l-163
0 0 261 0 261 233 -4 c227 -3 233 -4 289 -30z m-8 -855 c47 -13 72 -28 107
-63 55 -55 74 -113 74 -221 -1 -135 -68 -228 -189 -264 -37 -11 -106 -15 -278
-15 l-228 0 0 290 0 290 227 0 c183 0 238 -3 287 -17z"/>
<path d="M2547 2238 c-38 -4 -128 -30 -205 -58 -171 -63 -197 -63 -338 -10
-187 71 -261 82 -389 55 -252 -53 -445 -259 -512 -546 -28 -122 -23 -352 10
-513 48 -227 138 -430 274 -623 147 -206 248 -283 375 -283 58 0 88 7 191 47
121 47 123 47 242 48 119 0 121 -1 225 -44 188 -79 299 -66 422 47 118 110
255 314 322 483 20 49 36 95 36 102 0 6 -24 25 -53 41 -28 16 -84 61 -122 100
-116 117 -165 237 -165 402 0 172 50 286 182 417 102 102 102 94 3 184 -130
120 -309 174 -498 151z"/>
<path d="M6207 1960 c-158 -40 -306 -135 -396 -254 -52 -69 -123 -217 -145
-301 -44 -169 -42 -415 5 -585 74 -269 268 -466 529 -537 91 -25 329 -25 420
0 159 43 303 138 395 259 213 281 233 775 44 1096 -44 73 -168 197 -242 241
-31 18 -96 47 -144 64 -81 28 -101 31 -238 34 -124 2 -164 -1 -228 -17z m340
-376 c132 -64 202 -223 203 -456 0 -326 -119 -501 -342 -501 -64 0 -87 5 -132
27 -134 65 -206 225 -206 454 0 277 90 451 258 499 65 18 155 9 219 -23z"/>
<path d="M8105 1966 c-60 -19 -120 -52 -160 -87 l-35 -31 0 51 0 51 -193 0
c-175 0 -196 -2 -210 -18 -16 -17 -17 -88 -17 -814 0 -757 1 -796 18 -811 16
-15 45 -17 199 -17 162 0 182 2 196 18 15 17 17 70 17 552 l0 533 25 43 c52
89 161 131 320 121 138 -8 135 -13 135 212 l0 181 -27 12 c-41 17 -220 20
-268 4z"/>
<path d="M11140 1965 c-36 -8 -108 -36 -160 -61 -183 -91 -315 -258 -387 -490
-26 -85 -27 -98 -28 -304 0 -195 2 -222 23 -294 40 -137 94 -229 196 -332 77
-77 106 -98 186 -138 135 -66 254 -90 420 -83 255 11 450 105 585 281 l45 58
-107 104 c-132 127 -141 128 -220 49 -100 -100 -244 -147 -383 -124 -152 24
-269 142 -305 306 l-7 33 500 0 c485 0 499 1 517 20 16 18 17 35 12 192 -4
139 -10 192 -30 270 -51 197 -144 334 -291 430 -100 65 -197 90 -361 94 -97 3
-160 -1 -205 -11z m313 -383 c73 -39 121 -121 141 -239 l6 -33 -296 0 -296 0
7 33 c10 46 49 131 81 172 30 39 97 83 147 96 56 14 157 1 210 -29z"/>
<path d="M12910 1962 c-63 -21 -102 -43 -147 -86 l-33 -30 0 52 0 52 -193 0
c-175 0 -196 -2 -210 -18 -16 -17 -17 -88 -17 -814 0 -757 1 -796 18 -811 16
-15 45 -17 199 -17 162 0 182 2 196 18 15 17 17 70 17 559 l0 540 35 46 c23
30 54 55 92 74 54 26 66 28 185 29 177 0 168 -12 168 216 l0 178 -27 12 c-49
21 -220 20 -283 0z"/>
<path d="M16791 1970 c-260 -55 -460 -228 -551 -477 -42 -115 -60 -227 -60
-368 0 -146 19 -263 61 -381 63 -173 197 -327 352 -402 129 -64 189 -76 362
-76 173 0 233 12 362 76 157 76 288 228 352 404 49 135 64 244 58 419 -7 183
-29 283 -94 415 -40 80 -62 110 -138 186 -98 98 -172 144 -300 184 -56 18 -99
23 -215 26 -80 2 -165 -1 -189 -6z m295 -381 c60 -29 138 -116 163 -185 37
-97 44 -146 44 -284 -1 -216 -51 -359 -152 -436 -99 -76 -254 -78 -365 -5 -47
31 -110 125 -131 195 -40 133 -38 361 4 495 38 122 119 209 219 238 61 17 161
8 218 -18z"/>
<path d="M17916 1926 c-15 -23 -5 -62 193 -788 115 -419 214 -782 220 -805
l12 -43 178 0 177 0 144 468 c78 257 147 478 152 492 8 21 34 -53 163 -465
l153 -490 178 -3 179 -2 218 802 c120 442 218 808 217 814 0 6 -8 18 -18 27
-16 15 -46 17 -208 17 l-190 0 -109 -475 c-60 -261 -112 -475 -115 -475 -5 0
-236 751 -282 918 l-9 32 -167 -2 -166 -3 -141 -467 c-78 -257 -143 -470 -146
-472 -2 -3 -51 192 -108 432 -56 240 -107 454 -112 475 l-10 37 -193 0 c-194
0 -194 0 -210 -24z"/>
</g>
</svg>
