<svg version="1.1" id="cart-icon" xmlns="http://www.w3.org/2000/svg" xmlns:xlink="http://www.w3.org/1999/xlink" x="0px" y="0px"
	 viewBox="0 0 480 480" style="fill: #0071e3;" xml:space="preserve">
		<path d="M475.71,435.272h-0.04l-35.744-300.216c-0.478-4.025-3.891-7.056-7.944-7.056h-88v-24c0-57.438-46.562-104-104-104
			s-104,46.562-104,104v24h-88c-4.053,0-7.466,3.031-7.944,7.056L4.294,435.272c-2.611,21.937,13.055,41.836,34.992,44.448
			c1.572,0.187,3.153,0.281,4.736,0.28h391.96c22.091,0.005,40.004-17.9,40.008-39.992
			C475.991,438.425,475.897,436.844,475.71,435.272z M151.982,104c0-48.601,39.399-88,88-88s88,39.399,88,88v24h-176V104z
			 M453.894,455.936c-4.547,5.12-11.064,8.054-17.912,8.064H44.022c-13.255,0.004-24.003-10.737-24.008-23.992
			c0-0.949,0.056-1.897,0.168-2.84L55.086,144h80.896v56c0,4.418,3.582,8,8,8s8-3.582,8-8v-56h176v56c0,4.418,3.582,8,8,8
			s8-3.582,8-8v-56h80.896l34.904,293.168C460.591,443.978,458.448,450.809,453.894,455.936z"/>
</svg>
